<svg xmlns="http://www.w3.org/2000/svg" viewBox="0 0 1200 340" role="img" aria-labelledby="title desc">
  <title id="title">Movimiento armónico</title>
  <desc id="desc">Una trayectoria corporal curva atraviesa una retícula espacial y se transforma en una onda sonora.</desc>
  <defs>
    <linearGradient id="background" x2="1" y2="1"><stop stop-color="#102536"/><stop offset="1" stop-color="#112e36"/></linearGradient>
    <linearGradient id="motion" x1="0" x2="1" y1="0" y2="0"><stop stop-color="#ffa66b"/><stop offset=".5" stop-color="#f7d492"/><stop offset="1" stop-color="#66ded1"/></linearGradient>
    <pattern id="grid" width="44" height="44" patternUnits="userSpaceOnUse"><path d="M44 0H0V44" fill="none" stroke="#8fb8b2" stroke-opacity=".12"/></pattern>
    <filter id="glow"><feGaussianBlur stdDeviation="8"/></filter>
  </defs>
  <rect width="1200" height="340" rx="24" fill="url(#background)"/>
  <rect width="1200" height="340" rx="24" fill="url(#grid)"/>
  <circle cx="240" cy="170" r="115" fill="none" stroke="#a8c7bf" stroke-opacity=".28"/>
  <circle cx="240" cy="170" r="73" fill="none" stroke="#a8c7bf" stroke-opacity=".18"/>
  <path d="M80 170H1120M240 44V296" stroke="#9bc7c0" stroke-opacity=".2" stroke-dasharray="5 8"/>
  <path d="M102 228C149 228 153 73 235 88S339 260 403 203S460 98 512 166S580 249 632 158S684 103 719 170S763 224 801 169S840 123 875 170S909 202 940 170S971 145 998 170S1022 189 1048 170S1072 153 1095 170" fill="none" stroke="#66ded1" stroke-opacity=".45" stroke-width="17" filter="url(#glow)"/>
  <path d="M102 228C149 228 153 73 235 88S339 260 403 203S460 98 512 166S580 249 632 158S684 103 719 170S763 224 801 169S840 123 875 170S909 202 940 170S971 145 998 170S1022 189 1048 170S1072 153 1095 170" fill="none" stroke="url(#motion)" stroke-width="5" stroke-linecap="round"/>
  <circle cx="235" cy="88" r="7" fill="#ffd092"/><circle cx="512" cy="166" r="7" fill="#ffb77f"/><circle cx="719" cy="170" r="7" fill="#83e4d8"/>
  <path d="M240 170L235 88M240 170L403 203" fill="none" stroke="#ffc78c" stroke-opacity=".45" stroke-width="2"/>
  <text x="60" y="44" fill="#e8f2ed" font-family="DejaVu Sans, sans-serif" font-size="14" letter-spacing="3">ESPACIO</text>
  <text x="556" y="44" fill="#e8f2ed" font-family="DejaVu Sans, sans-serif" font-size="14" letter-spacing="3">TIEMPO</text>
  <text x="1030" y="44" fill="#e8f2ed" font-family="DejaVu Sans, sans-serif" font-size="14" letter-spacing="3">SONIDO</text>
  <text x="60" y="307" fill="#a7ccc7" font-family="DejaVu Sans, sans-serif" font-size="13" letter-spacing="2">MOVER · MEDIR · ESCUCHAR</text>
</svg>
